<svg width="170" height="73" viewBox="0 0 170 73" fill="none" xmlns="http://www.w3.org/2000/svg">
<ellipse cx="40.0377" cy="34.5" rx="32.4061" ry="32.6325" fill="url(#paint0_linear_1_55)"/>
<path d="M78.1892 25.3886C77.1018 25.7607 75.8876 25.463 75.0957 24.6125C73.871 23.2835 72.6885 21.6462 71.4005 19.3604C69.6056 16.1709 62.4156 2.93436 46.3676 0.563482C44.3827 0.191371 42.3344 0 40.2545 0C28.0284 0 17.3121 6.54915 11.3257 16.3729C8.68621 20.2003 8.32724 20.6575 6.57462 22.5393C6.12063 23.0177 5.45548 23.1878 4.80089 23.1985L2.38312 23.2622C1.7602 23.2729 1.25342 23.7619 1.21118 24.3892C1.14784 25.3248 1.04226 26.7176 0.978909 28.0784C0.915561 29.4393 1.06337 30.7151 1.17951 31.4593C1.24286 31.8421 1.53848 32.1504 1.91857 32.2248C2.6893 32.3843 3.99848 32.7139 4.79033 33.288C5.5505 33.8515 6.19454 36.924 6.55351 38.976C6.65909 39.5607 6.73299 40.071 6.78578 40.4006C6.81746 40.6345 6.83857 40.7834 6.84913 40.8259C6.84913 40.8259 6.84913 40.8259 6.84913 40.8365V40.8471C9.78424 56.8692 23.6363 69 40.2756 69C44.5621 69 48.6586 68.192 52.4278 66.7248C52.5651 66.6716 52.7023 66.6185 52.8396 66.5653C52.9346 66.5334 53.0296 66.4909 53.1246 66.4484C65.2135 61.5046 68.5181 54.5515 71.4216 49.4376C74.3778 44.228 75.4336 34.0216 77.4396 32.1079C79.4456 30.1941 81.6628 29.5562 85.4637 29.5562V24.1341C82.4758 24.1341 79.8046 24.8251 78.1892 25.3886ZM40.3601 66.3421C22.8655 66.3421 8.68621 52.0636 8.68621 34.4468C8.68621 27.9827 10.5972 21.9652 13.8807 16.9364L13.9018 16.8938C19.5715 8.25023 29.3059 2.55162 40.3601 2.55162C57.8546 2.55162 72.0339 16.83 72.0339 34.4468C72.0339 52.0636 57.8546 66.3421 40.3601 66.3421Z" fill="url(#paint1_linear_1_55)"/>
<path d="M69.9044 49.9281C67.5817 55.9032 62.2288 61.2084 56.5908 64.7275C55.4822 65.3016 54.2892 65.8545 52.98 66.3861C52.885 66.4286 52.79 66.4605 52.6949 66.503C52.5577 66.5562 52.4204 66.6094 52.2832 66.6625C48.514 68.1297 44.4069 68.9377 40.131 68.9377C33.5428 68.9377 27.3875 67.0346 22.1719 63.7388C17.0302 59.9432 14.0634 55.7543 11.9095 52.012C15.9216 57.3704 24.5052 67.6087 40.2893 67.6087C56.0207 67.6194 64.6149 58.0189 69.9044 49.9281Z" fill="url(#paint2_linear_1_55)"/>
<path d="M80.019 27.7494C78.5541 27.8763 76.2577 27.405 74.548 25.1537C74.8636 25.4185 75.8842 25.9748 77.4413 26.0807C79.3877 26.2131 82.1232 24.2531 85.4637 24.2531V27.2461C84.131 27.3256 81.8117 27.594 80.019 27.7494Z" fill="url(#paint3_linear_1_55)"/>
<path d="M5.26855 28.1929C4.25045 28.8388 1.73226 28.537 1.22462 27.4635C1.03915 26.8753 1.09573 24.7509 1.32586 24.0693C1.61352 23.2174 2.32422 23.3196 3.25489 23.3196C4.18556 23.3196 5.38698 23.4389 6.02999 23.064C6.673 22.6891 7.31663 21.9003 9.27951 19.3784C8.31499 21.0142 7.34455 22.2345 6.77892 23.5978C6.4506 24.3891 6.31529 27.5289 5.26855 28.1929Z" fill="url(#paint4_linear_1_55)"/>
<ellipse opacity="0.1" cx="40.907" cy="69.4636" rx="34.5049" ry="2.86618" fill="url(#paint5_radial_1_55)"/>
<ellipse rx="32.4061" ry="32.6325" transform="matrix(-1 0 0 1 130.857 34.5)" fill="url(#paint6_linear_1_55)"/>
<path d="M92.7052 25.3886C93.7927 25.7607 95.0068 25.463 95.7987 24.6125C97.0234 23.2835 98.2059 21.6462 99.494 19.3604C101.289 16.1709 108.479 2.93436 124.527 0.563482C126.512 0.191371 128.56 0 130.64 0C142.866 0 153.582 6.54915 159.569 16.3729C162.208 20.2003 162.567 20.6575 164.32 22.5393C164.774 23.0177 165.439 23.1878 166.094 23.1985L168.511 23.2622C169.134 23.2729 169.641 23.7619 169.683 24.3892C169.747 25.3248 169.852 26.7176 169.916 28.0784C169.979 29.4393 169.831 30.7151 169.715 31.4593C169.652 31.8421 169.356 32.1504 168.976 32.2248C168.205 32.3843 166.896 32.7139 166.104 33.288C165.344 33.8515 164.7 36.924 164.341 38.976C164.235 39.5607 164.161 40.071 164.109 40.4006C164.077 40.6345 164.056 40.7834 164.045 40.8259C164.045 40.8259 164.045 40.8259 164.045 40.8365V40.8471C161.11 56.8692 147.258 69 130.619 69C126.332 69 122.236 68.192 118.467 66.7248C118.329 66.6716 118.192 66.6185 118.055 66.5653C117.96 66.5334 117.865 66.4909 117.77 66.4484C105.681 61.5046 102.376 54.5515 99.4729 49.4376C96.5166 44.228 95.4608 34.0216 93.4548 32.1079C91.4488 30.1941 89.2316 29.5562 85.4308 29.5562V24.1341C88.4187 24.1341 91.0898 24.8251 92.7052 25.3886ZM130.534 66.3421C148.029 66.3421 162.208 52.0636 162.208 34.4468C162.208 27.9827 160.297 21.9652 157.014 16.9364L156.993 16.8938C151.323 8.25023 141.589 2.55162 130.534 2.55162C113.04 2.55162 98.8605 16.83 98.8605 34.4468C98.8605 52.0636 113.04 66.3421 130.534 66.3421Z" fill="url(#paint7_linear_1_55)"/>
<path d="M100.99 49.9281C103.313 55.9032 108.666 61.2084 114.304 64.7275C115.412 65.3016 116.605 65.8545 117.914 66.3861C118.009 66.4286 118.104 66.4605 118.199 66.503C118.337 66.5562 118.474 66.6094 118.611 66.6625C122.38 68.1297 126.487 68.9377 130.763 68.9377C137.352 68.9377 143.507 67.0346 148.723 63.7388C153.864 59.9432 156.831 55.7543 158.985 52.012C154.973 57.3704 146.389 67.6087 130.605 67.6087C114.874 67.6194 106.28 58.0189 100.99 49.9281Z" fill="url(#paint8_linear_1_55)"/>
<path d="M90.8754 27.7494C92.3404 27.8763 94.6367 27.405 96.3464 25.1537C96.0308 25.4185 95.0102 25.9748 93.4531 26.0807C91.5067 26.2131 88.7712 24.2531 85.4308 24.2531V27.2461C86.7634 27.3256 89.0827 27.594 90.8754 27.7494Z" fill="url(#paint9_linear_1_55)"/>
<path d="M165.626 28.1929C166.644 28.8388 169.162 28.537 169.67 27.4635C169.855 26.8753 169.799 24.7509 169.569 24.0693C169.281 23.2174 168.57 23.3196 167.64 23.3196C166.709 23.3196 165.507 23.4389 164.864 23.064C164.221 22.6891 163.578 21.9003 161.615 19.3784C162.579 21.0142 163.55 22.2345 164.116 23.5978C164.444 24.3891 164.579 27.5289 165.626 28.1929Z" fill="url(#paint10_linear_1_55)"/>
<ellipse opacity="0.1" rx="34.5049" ry="2.86618" transform="matrix(-1 0 0 1 129.987 69.4636)" fill="url(#paint11_radial_1_55)"/>
<defs>
<linearGradient id="paint0_linear_1_55" x1="40.0377" y1="1.86744" x2="40.0377" y2="67.1325" gradientUnits="userSpaceOnUse">
<stop stop-color="white"/>
<stop offset="0.291667" stop-color="white" stop-opacity="0"/>
<stop offset="1" stop-color="white" stop-opacity="0"/>
</linearGradient>
<linearGradient id="paint1_linear_1_55" x1="43.2137" y1="0" x2="43.2137" y2="69" gradientUnits="userSpaceOnUse">
<stop/>
<stop offset="1" stop-color="#353535" stop-opacity="0.9"/>
</linearGradient>
<linearGradient id="paint2_linear_1_55" x1="40.907" y1="57.1425" x2="40.907" y2="68.9377" gradientUnits="userSpaceOnUse">
<stop stop-opacity="0"/>
<stop offset="1"/>
</linearGradient>
<linearGradient id="paint3_linear_1_55" x1="80.0058" y1="25.8214" x2="80.0058" y2="27.7683" gradientUnits="userSpaceOnUse">
<stop stop-color="#1D1D1D" stop-opacity="0"/>
<stop offset="1" stop-color="#323232"/>
</linearGradient>
<linearGradient id="paint4_linear_1_55" x1="5.19667" y1="19.3784" x2="5.19667" y2="28.5304" gradientUnits="userSpaceOnUse">
<stop stop-opacity="0"/>
<stop offset="1" stop-color="#333333"/>
</linearGradient>
<radialGradient id="paint5_radial_1_55" cx="0" cy="0" r="1" gradientUnits="userSpaceOnUse" gradientTransform="translate(40.907 69.4636) rotate(90) scale(2.86618 34.5049)">
<stop/>
<stop offset="1" stop-opacity="0"/>
</radialGradient>
<linearGradient id="paint6_linear_1_55" x1="32.4061" y1="0" x2="32.4061" y2="65.2651" gradientUnits="userSpaceOnUse">
<stop stop-color="white"/>
<stop offset="0.291667" stop-color="white" stop-opacity="0"/>
<stop offset="1" stop-color="white" stop-opacity="0"/>
</linearGradient>
<linearGradient id="paint7_linear_1_55" x1="127.681" y1="0" x2="127.681" y2="69" gradientUnits="userSpaceOnUse">
<stop/>
<stop offset="1" stop-color="#353535" stop-opacity="0.9"/>
</linearGradient>
<linearGradient id="paint8_linear_1_55" x1="129.987" y1="57.1425" x2="129.987" y2="68.9377" gradientUnits="userSpaceOnUse">
<stop stop-opacity="0"/>
<stop offset="1"/>
</linearGradient>
<linearGradient id="paint9_linear_1_55" x1="90.8886" y1="25.8214" x2="90.8886" y2="27.7683" gradientUnits="userSpaceOnUse">
<stop stop-color="#1D1D1D" stop-opacity="0"/>
<stop offset="1" stop-color="#323232"/>
</linearGradient>
<linearGradient id="paint10_linear_1_55" x1="165.698" y1="19.3784" x2="165.698" y2="28.5304" gradientUnits="userSpaceOnUse">
<stop stop-opacity="0"/>
<stop offset="1" stop-color="#333333"/>
</linearGradient>
<radialGradient id="paint11_radial_1_55" cx="0" cy="0" r="1" gradientUnits="userSpaceOnUse" gradientTransform="translate(34.5049 2.86618) rotate(90) scale(2.86618 34.5049)">
<stop/>
<stop offset="1" stop-opacity="0"/>
</radialGradient>
</defs>
</svg>
