<svg width="132" height="24" viewBox="0 0 132 24" fill="none" xmlns="http://www.w3.org/2000/svg">
<path fill-rule="evenodd" clip-rule="evenodd" d="M79.567 9.49097H73.9771V6.49097H79.567V9.49097Z" fill="#B0B0B0"/>
<path fill-rule="evenodd" clip-rule="evenodd" d="M29.6685 9.49097L22.65 9.49097L22.65 6.49097L29.6685 6.49097L29.6685 9.49097Z" fill="#B0B0B0"/>
<path fill-rule="evenodd" clip-rule="evenodd" d="M51.5276 5.11523C50.9511 5.11523 50.6519 5.519 50.6519 5.8512V9.53122H47.6519V5.8512C47.6519 3.66793 49.4954 2.11523 51.5276 2.11523C53.5807 2.11523 55.4033 3.73418 55.4033 5.8512V9.53122H52.4033V5.8512C52.4033 5.54592 52.0831 5.11523 51.5276 5.11523Z" fill="url(#paint0_linear_447_155)"/>
<path fill-rule="evenodd" clip-rule="evenodd" d="M12.8639 3.01904C7.90377 3.01904 3.88281 7.04 3.88281 12.0001C3.88281 16.9602 7.90377 20.9812 12.8639 20.9812C17.824 20.9812 21.8449 16.9602 21.8449 12.0001C21.8449 7.04 17.824 3.01904 12.8639 3.01904ZM0.882812 12.0001C0.882812 5.38315 6.24692 0.019043 12.8639 0.019043C19.4808 0.019043 24.8449 5.38315 24.8449 12.0001C24.8449 18.6171 19.4808 23.9812 12.8639 23.9812C6.24692 23.9812 0.882812 18.6171 0.882812 12.0001Z" fill="black"/>
<path fill-rule="evenodd" clip-rule="evenodd" d="M119.538 3.01904C114.578 3.01904 110.557 7.04 110.557 12.0001C110.557 16.9602 114.578 20.9812 119.538 20.9812C124.498 20.9812 128.519 16.9602 128.519 12.0001C128.519 7.04 124.498 3.01904 119.538 3.01904ZM107.557 12.0001C107.557 5.38315 112.921 0.019043 119.538 0.019043C126.155 0.019043 131.519 5.38315 131.519 12.0001C131.519 18.6171 126.155 23.9812 119.538 23.9812C112.921 23.9812 107.557 18.6171 107.557 12.0001Z" fill="black"/>
<path fill-rule="evenodd" clip-rule="evenodd" d="M38.9503 3.01904C34.0025 3.01904 29.9692 7.05231 29.9692 12.0001C29.9692 16.9479 34.0025 20.9812 38.9503 20.9812C40.98 20.9812 42.8152 20.3077 44.3491 19.1774L46.1287 21.5925C44.1224 23.0709 41.672 23.9812 38.9503 23.9812C32.3456 23.9812 26.9692 18.6048 26.9692 12.0001C26.9692 5.39545 32.3456 0.019043 38.9503 0.019043C41.6621 0.019043 44.1675 0.92332 46.1441 2.41915L44.3338 4.81137C42.8633 3.69857 40.99 3.01904 38.9503 3.01904Z" fill="black"/>
<path fill-rule="evenodd" clip-rule="evenodd" d="M47.9312 12.0001C47.9312 9.04147 46.5366 6.4536 44.3423 4.81784L46.1353 2.4126C49.065 4.5966 50.9312 8.06446 50.9312 12.0001C50.9312 15.9357 49.065 19.4035 46.1353 21.5875L44.3423 19.1823C46.5366 17.5465 47.9312 14.9587 47.9312 12.0001Z" fill="url(#paint1_linear_447_155)"/>
<path fill-rule="evenodd" clip-rule="evenodd" d="M64.1046 3.01904C59.1568 3.01904 55.1235 7.05231 55.1235 12.0001C55.1235 16.9479 59.1568 20.9812 64.1046 20.9812C66.1343 20.9812 67.9695 20.3077 69.5034 19.1774L71.283 21.5925C69.2767 23.0709 66.8263 23.9812 64.1046 23.9812C57.4999 23.9812 52.1235 18.6048 52.1235 12.0001C52.1235 5.39545 57.4999 0.019043 64.1046 0.019043C66.8163 0.019043 69.3218 0.92332 71.2984 2.41915L69.4881 4.81137C68.0176 3.69857 66.1443 3.01904 64.1046 3.01904Z" fill="black"/>
<path fill-rule="evenodd" clip-rule="evenodd" d="M73.0855 12.0001C73.0855 9.04147 71.6909 6.4536 69.4966 4.81784L71.2896 2.4126C74.2193 4.5966 76.0855 8.06446 76.0855 12.0001C76.0855 15.9357 74.2193 19.4035 71.2896 21.5875L69.4966 19.1823C71.6909 17.5465 73.0855 14.9587 73.0855 12.0001Z" fill="url(#paint2_linear_447_155)"/>
<path fill-rule="evenodd" clip-rule="evenodd" d="M78.21 23.8787L78.21 0.121582L81.21 0.121582L81.21 23.8787L78.21 23.8787Z" fill="black"/>
<path fill-rule="evenodd" clip-rule="evenodd" d="M94.9795 23.8787L94.9795 0.121582L97.9795 0.121582L97.9795 23.8787L94.9795 23.8787Z" fill="black"/>
<path fill-rule="evenodd" clip-rule="evenodd" d="M96.4797 13.733H79.71V10.733H96.4797V13.733Z" fill="black"/>
<path fill-rule="evenodd" clip-rule="evenodd" d="M101.501 23.8787L101.501 0.121582L104.501 0.121582L104.501 23.8787L101.501 23.8787Z" fill="black"/>
<defs>
<linearGradient id="paint0_linear_447_155" x1="51.5276" y1="3.61523" x2="51.5276" y2="9.53122" gradientUnits="userSpaceOnUse">
<stop stop-color="#B0B0B0"/>
<stop offset="1" stop-color="#A0A0A0" stop-opacity="0"/>
</linearGradient>
<linearGradient id="paint1_linear_447_155" x1="47.335" y1="3.61523" x2="47.335" y2="20.3849" gradientUnits="userSpaceOnUse">
<stop stop-color="#B0B0B0"/>
<stop offset="1" stop-color="#D5D5D5"/>
</linearGradient>
<linearGradient id="paint2_linear_447_155" x1="72.4893" y1="3.61523" x2="72.4893" y2="20.3849" gradientUnits="userSpaceOnUse">
<stop stop-color="#B0B0B0"/>
<stop offset="1" stop-color="#D5D5D5"/>
</linearGradient>
</defs>
</svg>
