<svg width="56" height="25" viewBox="0 0 56 25" fill="none" xmlns="http://www.w3.org/2000/svg">
<path fill-rule="evenodd" clip-rule="evenodd" d="M55.567 9.60107H49.9771V6.60107H55.567V9.60107Z" fill="#B0B0B0"/>
<path fill-rule="evenodd" clip-rule="evenodd" d="M6.32867 9.60107L0.738769 9.60107L0.73877 6.60107L6.32867 6.60107L6.32867 9.60107Z" fill="#B0B0B0"/>
<path fill-rule="evenodd" clip-rule="evenodd" d="M28.5276 5.22534C27.9511 5.22534 27.6519 5.62911 27.6519 5.9613V9.64132H24.6519V5.9613C24.6519 3.77804 26.4954 2.22534 28.5276 2.22534C30.5807 2.22534 32.4033 3.84428 32.4033 5.9613V9.64132H29.4033V5.9613C29.4033 5.65603 29.0831 5.22534 28.5276 5.22534Z" fill="url(#paint0_linear_447_175)"/>
<path fill-rule="evenodd" clip-rule="evenodd" d="M15.9503 3.12915C11.0025 3.12915 6.96924 7.16241 6.96924 12.1102C6.96924 17.058 11.0025 21.0913 15.9503 21.0913C17.98 21.0913 19.8152 20.4178 21.3491 19.2875L23.1287 21.7027C21.1224 23.181 18.672 24.0913 15.9503 24.0913C9.34565 24.0913 3.96924 18.7149 3.96924 12.1102C3.96924 5.50556 9.34565 0.12915 15.9503 0.12915C18.6621 0.12915 21.1675 1.03343 23.1441 2.52925L21.3338 4.92147C19.8633 3.80868 17.99 3.12915 15.9503 3.12915Z" fill="black"/>
<path fill-rule="evenodd" clip-rule="evenodd" d="M24.9312 12.1102C24.9312 9.15158 23.5366 6.56371 21.3423 4.92794L23.1353 2.52271C26.065 4.70671 27.9312 8.17456 27.9312 12.1102C27.9312 16.0458 26.065 19.5137 23.1353 21.6977L21.3423 19.2924C23.5366 17.6566 24.9312 15.0688 24.9312 12.1102Z" fill="url(#paint1_linear_447_175)"/>
<path fill-rule="evenodd" clip-rule="evenodd" d="M41.1046 3.12915C36.1568 3.12915 32.1235 7.16241 32.1235 12.1102C32.1235 17.058 36.1568 21.0913 41.1046 21.0913C43.1343 21.0913 44.9695 20.4178 46.5034 19.2875L48.283 21.7027C46.2767 23.181 43.8263 24.0913 41.1046 24.0913C34.4999 24.0913 29.1235 18.7149 29.1235 12.1102C29.1235 5.50556 34.4999 0.12915 41.1046 0.12915C43.8163 0.12915 46.3218 1.03343 48.2984 2.52925L46.4881 4.92147C45.0176 3.80868 43.1443 3.12915 41.1046 3.12915Z" fill="black"/>
<path fill-rule="evenodd" clip-rule="evenodd" d="M50.0855 12.1102C50.0855 9.15158 48.6909 6.56371 46.4966 4.92794L48.2896 2.52271C51.2193 4.70671 53.0855 8.17456 53.0855 12.1102C53.0855 16.0458 51.2193 19.5137 48.2896 21.6977L46.4966 19.2924C48.6909 17.6566 50.0855 15.0688 50.0855 12.1102Z" fill="url(#paint2_linear_447_175)"/>
<defs>
<linearGradient id="paint0_linear_447_175" x1="28.5276" y1="3.72534" x2="28.5276" y2="9.64132" gradientUnits="userSpaceOnUse">
<stop stop-color="#B0B0B0"/>
<stop offset="1" stop-color="#A0A0A0" stop-opacity="0"/>
</linearGradient>
<linearGradient id="paint1_linear_447_175" x1="24.335" y1="3.72534" x2="24.335" y2="20.4951" gradientUnits="userSpaceOnUse">
<stop stop-color="#B0B0B0"/>
<stop offset="1" stop-color="#D5D5D5"/>
</linearGradient>
<linearGradient id="paint2_linear_447_175" x1="49.4893" y1="3.72534" x2="49.4893" y2="20.4951" gradientUnits="userSpaceOnUse">
<stop stop-color="#B0B0B0"/>
<stop offset="1" stop-color="#D5D5D5"/>
</linearGradient>
</defs>
</svg>
