<svg width="499" height="147" viewBox="0 0 499 147" fill="none" xmlns="http://www.w3.org/2000/svg">
<ellipse cx="116.034" cy="101.444" rx="95.4925" ry="95.533" fill="url(#paint0_linear_447_114)"/>
<path d="M228.457 74.77C225.253 75.8594 221.675 74.9879 219.341 72.4979C215.732 68.6073 212.248 63.8141 208.452 57.1222C203.163 47.7848 181.976 9.03442 134.687 2.09358C128.838 1.00422 122.802 0.44397 116.673 0.44397C80.6458 0.44397 49.0675 19.6168 31.4272 48.3762C23.6493 59.5811 22.5915 60.9195 17.427 66.4286C16.0892 67.8292 14.1292 68.3272 12.2003 68.3583L5.07569 68.545C3.24011 68.5762 1.74675 70.0079 1.6223 71.8443C1.43563 74.5833 1.12452 78.6606 0.937847 82.6446C0.751178 86.6286 1.18674 90.3635 1.52897 92.5423C1.71564 93.6628 2.58676 94.5654 3.70678 94.7833C5.97793 95.2501 9.83577 96.215 12.1691 97.8957C14.4092 99.5454 16.307 108.54 17.3648 114.548C17.6759 116.259 17.8937 117.753 18.0492 118.718C18.1426 119.403 18.2048 119.839 18.2359 119.963C18.2359 119.963 18.2359 119.963 18.2359 119.994V120.025C26.8849 166.931 67.7034 202.444 116.735 202.444C129.367 202.444 141.438 200.078 152.545 195.783C152.949 195.628 153.354 195.472 153.758 195.316C154.038 195.223 154.318 195.099 154.598 194.974C190.221 180.501 199.959 160.145 208.515 145.174C217.226 129.923 220.337 100.043 226.248 94.4409C232.159 88.8384 238.693 86.9709 249.893 86.9709V71.0973C241.088 71.0973 233.217 73.1204 228.457 74.77ZM116.984 194.663C65.4322 194.663 23.6493 152.862 23.6493 101.288C23.6493 82.3645 29.2805 64.7478 38.9562 50.0258L39.0185 49.9013C55.7254 24.5968 84.4103 7.91392 116.984 7.91392C168.536 7.91392 210.319 49.7145 210.319 101.288C210.319 152.862 168.536 194.663 116.984 194.663Z" fill="url(#paint1_linear_447_114)"/>
<path d="M204.044 146.61C197.199 164.103 181.426 179.634 164.812 189.936C161.545 191.617 158.03 193.235 154.172 194.792C153.892 194.916 153.612 195.009 153.332 195.134C152.927 195.29 152.523 195.445 152.118 195.601C141.012 199.896 128.909 202.262 116.309 202.262C96.8954 202.262 78.7573 196.69 63.3882 187.042C48.2368 175.93 39.4944 163.667 33.1477 152.711C44.9701 168.398 70.2638 198.371 116.776 198.371C163.132 198.402 188.457 170.296 204.044 146.61Z" fill="url(#paint2_linear_447_114)"/>
<path d="M233.849 81.6812C229.532 82.053 222.765 80.6732 217.727 74.0822C218.657 74.8577 221.665 76.486 226.253 76.7962C231.989 77.1839 240.049 71.4459 249.893 71.4459V80.208C245.966 80.4406 239.132 81.2263 233.849 81.6812Z" fill="url(#paint3_linear_447_114)"/>
<path d="M13.5783 82.9798C10.5782 84.8706 3.15777 83.9871 1.6619 80.8444C1.11535 79.1223 1.28209 72.9032 1.96022 70.9079C2.80787 68.4137 4.90213 68.713 7.64458 68.713C10.387 68.713 13.9273 69.0622 15.8221 67.9647C17.7169 66.8673 19.6135 64.5579 25.3976 57.175C22.5554 61.9639 19.6958 65.5364 18.029 69.5274C17.0615 71.844 16.6628 81.0358 13.5783 82.9798Z" fill="url(#paint4_linear_447_114)"/>
<ellipse rx="95.4925" ry="95.533" transform="matrix(-1 0 0 1 383.655 101.444)" fill="url(#paint5_linear_447_114)"/>
<path d="M271.232 74.77C274.436 75.8594 278.014 74.9879 280.347 72.4979C283.956 68.6073 287.441 63.8141 291.237 57.1222C296.526 47.7848 317.713 9.03442 365.002 2.09358C370.851 1.00422 376.887 0.44397 383.016 0.44397C419.043 0.44397 450.621 19.6168 468.262 48.3762C476.04 59.5811 477.097 60.9195 482.262 66.4286C483.6 67.8292 485.56 68.3272 487.489 68.3583L494.613 68.545C496.449 68.5762 497.942 70.0079 498.067 71.8443C498.253 74.5833 498.564 78.6606 498.751 82.6446C498.938 86.6286 498.502 90.3635 498.16 92.5423C497.973 93.6628 497.102 94.5654 495.982 94.7833C493.711 95.2501 489.853 96.215 487.52 97.8957C485.28 99.5454 483.382 108.54 482.324 114.548C482.013 116.259 481.795 117.753 481.64 118.718C481.546 119.403 481.484 119.839 481.453 119.963C481.453 119.963 481.453 119.963 481.453 119.994V120.025C472.804 166.931 431.986 202.444 382.954 202.444C370.322 202.444 358.251 200.078 347.144 195.783C346.74 195.628 346.335 195.472 345.931 195.316C345.651 195.223 345.371 195.099 345.091 194.974C309.468 180.501 299.73 160.145 291.174 145.174C282.463 129.923 279.352 100.043 273.441 94.4409C267.529 88.8384 260.996 86.9709 249.796 86.9709V71.0973C258.6 71.0973 266.472 73.1204 271.232 74.77ZM382.705 194.663C434.257 194.663 476.04 152.862 476.04 101.288C476.04 82.3645 470.408 64.7478 460.733 50.0258L460.67 49.9013C443.963 24.5968 415.279 7.91392 382.705 7.91392C331.153 7.91392 289.37 49.7145 289.37 101.288C289.37 152.862 331.153 194.663 382.705 194.663Z" fill="url(#paint6_linear_447_114)"/>
<path d="M295.645 146.61C302.49 164.103 318.263 179.634 334.877 189.936C338.144 191.617 341.659 193.235 345.517 194.792C345.797 194.916 346.077 195.009 346.357 195.134C346.761 195.29 347.166 195.445 347.57 195.601C358.677 199.896 370.78 202.262 383.38 202.262C402.794 202.262 420.932 196.69 436.301 187.042C451.452 175.93 460.194 163.667 466.541 152.711C454.719 168.398 429.425 198.371 382.913 198.371C336.557 198.402 311.232 170.296 295.645 146.61Z" fill="url(#paint7_linear_447_114)"/>
<path d="M265.84 81.6812C270.157 82.053 276.924 80.6732 281.962 74.0822C281.032 74.8577 278.024 76.486 273.436 76.7962C267.7 77.1839 259.639 71.4459 249.796 71.4459V80.208C253.723 80.4406 260.557 81.2263 265.84 81.6812Z" fill="url(#paint8_linear_447_114)"/>
<path d="M486.111 82.9798C489.111 84.8706 496.531 83.9871 498.027 80.8444C498.574 79.1223 498.407 72.9032 497.729 70.9079C496.881 68.4137 494.787 68.713 492.044 68.713C489.302 68.713 485.762 69.0622 483.867 67.9647C481.972 66.8673 480.075 64.5579 474.291 57.175C477.133 61.9639 479.993 65.5364 481.66 69.5274C482.627 71.844 483.026 81.0358 486.111 82.9798Z" fill="url(#paint9_linear_447_114)"/>
<defs>
<linearGradient id="paint0_linear_447_114" x1="116.034" y1="5.91095" x2="116.034" y2="196.977" gradientUnits="userSpaceOnUse">
<stop stop-color="white" stop-opacity="0.2"/>
<stop offset="0.291667" stop-color="white" stop-opacity="0"/>
<stop offset="1" stop-color="white" stop-opacity="0"/>
</linearGradient>
<linearGradient id="paint1_linear_447_114" x1="125.393" y1="0.44397" x2="125.393" y2="202.444" gradientUnits="userSpaceOnUse">
<stop stop-color="white"/>
<stop offset="1" stop-color="white" stop-opacity="0.55"/>
</linearGradient>
<linearGradient id="paint2_linear_447_114" x1="118.596" y1="167.731" x2="118.596" y2="202.262" gradientUnits="userSpaceOnUse">
<stop stop-color="white" stop-opacity="0"/>
<stop offset="1" stop-color="white"/>
</linearGradient>
<linearGradient id="paint3_linear_447_114" x1="233.81" y1="76.0372" x2="233.81" y2="81.7368" gradientUnits="userSpaceOnUse">
<stop stop-color="white" stop-opacity="0"/>
<stop offset="1" stop-color="white"/>
</linearGradient>
<linearGradient id="paint4_linear_447_114" x1="13.3665" y1="57.175" x2="13.3665" y2="83.9677" gradientUnits="userSpaceOnUse">
<stop stop-color="white" stop-opacity="0"/>
<stop offset="1" stop-color="white"/>
</linearGradient>
<linearGradient id="paint5_linear_447_114" x1="95.4925" y1="0" x2="95.4925" y2="191.066" gradientUnits="userSpaceOnUse">
<stop stop-color="white" stop-opacity="0.2"/>
<stop offset="0.291667" stop-color="white" stop-opacity="0"/>
<stop offset="1" stop-color="white" stop-opacity="0"/>
</linearGradient>
<linearGradient id="paint6_linear_447_114" x1="374.296" y1="0.44397" x2="374.296" y2="202.444" gradientUnits="userSpaceOnUse">
<stop stop-color="white"/>
<stop offset="1" stop-color="white" stop-opacity="0.55"/>
</linearGradient>
<linearGradient id="paint7_linear_447_114" x1="381.093" y1="167.731" x2="381.093" y2="202.262" gradientUnits="userSpaceOnUse">
<stop stop-color="white" stop-opacity="0"/>
<stop offset="1" stop-color="white"/>
</linearGradient>
<linearGradient id="paint8_linear_447_114" x1="265.879" y1="76.0372" x2="265.879" y2="81.7368" gradientUnits="userSpaceOnUse">
<stop stop-color="white" stop-opacity="0"/>
<stop offset="1" stop-color="white"/>
</linearGradient>
<linearGradient id="paint9_linear_447_114" x1="486.322" y1="57.175" x2="486.322" y2="83.9677" gradientUnits="userSpaceOnUse">
<stop stop-color="white" stop-opacity="0"/>
<stop offset="1" stop-color="white"/>
</linearGradient>
</defs>
</svg>
