<svg width="151" height="47" viewBox="0 0 151 47" fill="none" xmlns="http://www.w3.org/2000/svg">
<path fill-rule="evenodd" clip-rule="evenodd" d="M87.567 20.757H81.9771V17.757H87.567V20.757Z" fill="#5F5F5F"/>
<path fill-rule="evenodd" clip-rule="evenodd" d="M38.3287 20.757L32.7388 20.757L32.7388 17.757L38.3287 17.757L38.3287 20.757Z" fill="#5F5F5F"/>
<path fill-rule="evenodd" clip-rule="evenodd" d="M60.5276 16.3812C59.9511 16.3812 59.6519 16.785 59.6519 17.1172V20.7972H56.6519V17.1172C56.6519 14.9339 58.4954 13.3812 60.5276 13.3812C62.5807 13.3812 64.4033 15.0002 64.4033 17.1172V20.7972H61.4033V17.1172C61.4033 16.8119 61.0831 16.3812 60.5276 16.3812Z" fill="url(#paint0_linear_447_98)"/>
<path fill-rule="evenodd" clip-rule="evenodd" d="M21.8639 14.285C16.9038 14.285 12.8828 18.306 12.8828 23.2661C12.8828 28.2262 16.9038 32.2472 21.8639 32.2472C26.824 32.2472 30.8449 28.2262 30.8449 23.2661C30.8449 18.306 26.824 14.285 21.8639 14.285ZM9.88281 23.2661C9.88281 16.6491 15.2469 11.285 21.8639 11.285C28.4808 11.285 33.8449 16.6491 33.8449 23.2661C33.8449 29.8831 28.4808 35.2472 21.8639 35.2472C15.2469 35.2472 9.88281 29.8831 9.88281 23.2661Z" fill="white"/>
<path fill-rule="evenodd" clip-rule="evenodd" d="M128.538 14.285C123.578 14.285 119.557 18.306 119.557 23.2661C119.557 28.2262 123.578 32.2472 128.538 32.2472C133.498 32.2472 137.519 28.2262 137.519 23.2661C137.519 18.306 133.498 14.285 128.538 14.285ZM116.557 23.2661C116.557 16.6491 121.921 11.285 128.538 11.285C135.155 11.285 140.519 16.6491 140.519 23.2661C140.519 29.8831 135.155 35.2472 128.538 35.2472C121.921 35.2472 116.557 29.8831 116.557 23.2661Z" fill="white"/>
<path fill-rule="evenodd" clip-rule="evenodd" d="M47.9503 14.285C43.0025 14.285 38.9692 18.3183 38.9692 23.2661C38.9692 28.2139 43.0025 32.2472 47.9503 32.2472C49.98 32.2472 51.8152 31.5736 53.3491 30.4434L55.1287 32.8585C53.1224 34.3369 50.672 35.2472 47.9503 35.2472C41.3456 35.2472 35.9692 29.8708 35.9692 23.2661C35.9692 16.6614 41.3456 11.285 47.9503 11.285C50.6621 11.285 53.1675 12.1893 55.1441 13.6851L53.3338 16.0774C51.8633 14.9646 49.99 14.285 47.9503 14.285Z" fill="white"/>
<path fill-rule="evenodd" clip-rule="evenodd" d="M56.9312 23.2661C56.9312 20.3075 55.5366 17.7196 53.3423 16.0838L55.1353 13.6786C58.065 15.8626 59.9312 19.3304 59.9312 23.2661C59.9312 27.2017 58.065 30.6695 55.1353 32.8535L53.3423 30.4483C55.5366 28.8125 56.9312 26.2247 56.9312 23.2661Z" fill="url(#paint1_linear_447_98)"/>
<path fill-rule="evenodd" clip-rule="evenodd" d="M73.1046 14.285C68.1568 14.285 64.1235 18.3183 64.1235 23.2661C64.1235 28.2139 68.1568 32.2472 73.1046 32.2472C75.1343 32.2472 76.9695 31.5736 78.5034 30.4434L80.283 32.8585C78.2767 34.3369 75.8263 35.2472 73.1046 35.2472C66.4999 35.2472 61.1235 29.8708 61.1235 23.2661C61.1235 16.6614 66.4999 11.285 73.1046 11.285C75.8163 11.285 78.3218 12.1893 80.2984 13.6851L78.4881 16.0774C77.0176 14.9646 75.1443 14.285 73.1046 14.285Z" fill="white"/>
<path fill-rule="evenodd" clip-rule="evenodd" d="M82.0855 23.2661C82.0855 20.3075 80.6909 17.7196 78.4966 16.0838L80.2896 13.6786C83.2193 15.8626 85.0855 19.3304 85.0855 23.2661C85.0855 27.2017 83.2193 30.6695 80.2896 32.8535L78.4966 30.4483C80.6909 28.8125 82.0855 26.2247 82.0855 23.2661Z" fill="url(#paint2_linear_447_98)"/>
<path fill-rule="evenodd" clip-rule="evenodd" d="M87.21 35.1447L87.21 11.3876L90.21 11.3876L90.21 35.1447L87.21 35.1447Z" fill="white"/>
<path fill-rule="evenodd" clip-rule="evenodd" d="M103.979 35.1447L103.979 11.3876L106.979 11.3876L106.979 35.1447L103.979 35.1447Z" fill="white"/>
<path fill-rule="evenodd" clip-rule="evenodd" d="M105.48 24.999H88.71V21.999H105.48V24.999Z" fill="white"/>
<path fill-rule="evenodd" clip-rule="evenodd" d="M110.501 35.1447L110.501 11.3876L113.501 11.3876L113.501 35.1447L110.501 35.1447Z" fill="white"/>
<defs>
<linearGradient id="paint0_linear_447_98" x1="60.5276" y1="14.8812" x2="60.5276" y2="20.7972" gradientUnits="userSpaceOnUse">
<stop stop-color="#B0B0B0"/>
<stop offset="1" stop-color="#A0A0A0" stop-opacity="0"/>
</linearGradient>
<linearGradient id="paint1_linear_447_98" x1="56.335" y1="14.8812" x2="56.335" y2="31.6509" gradientUnits="userSpaceOnUse">
<stop stop-color="#DEDEDE"/>
<stop offset="1"/>
</linearGradient>
<linearGradient id="paint2_linear_447_98" x1="81.4893" y1="14.8812" x2="81.4893" y2="31.6509" gradientUnits="userSpaceOnUse">
<stop stop-color="#DEDEDE"/>
<stop offset="1"/>
</linearGradient>
</defs>
</svg>
